# Blender v2.79 (sub 0) OBJ File: 'Plane.blend'
# www.blender.org
mtllib Circle.mtl
o Cylinder
v 0.000000 0.999993 -0.009844
v 0.707107 0.707099 -0.009846
v 1.000000 -0.000007 -0.009851
v 0.707107 -0.707114 -0.009857
v -0.000000 -1.000007 -0.009859
v -0.707107 -0.707114 -0.009857
v -1.000000 -0.000007 -0.009851
v -0.707107 0.707099 -0.009846
v 0.707107 0.707099 -0.022750
v 0.000000 0.999993 -0.022747
v 1.000000 -0.000007 -0.022755
v 0.707107 -0.707114 -0.022760
v -0.000000 -1.000008 -0.022762
v -0.707107 -0.707114 -0.022760
v -1.000000 -0.000007 -0.022755
v -0.707107 0.707099 -0.022750
vn 0.0000 -0.0000 1.0000
vn -0.0000 0.0000 -1.0000
vn 0.3827 0.9239 0.0000
vn -0.3827 0.9239 0.0000
vn -0.9239 -0.3827 0.0000
vn 0.3827 -0.9239 0.0000
vn 0.9239 0.3827 0.0000
vn -0.9239 0.3827 0.0000
vn -0.3827 -0.9239 0.0000
vn 0.9239 -0.3827 0.0000
usemtl None
s off
f 2//1 1//1 8//1 7//1 6//1 5//1 4//1 3//1
f 9//2 11//2 12//2 13//2 14//2 15//2 16//2 10//2
f 2//3 9//3 10//3 1//3
f 1//4 10//4 16//4 8//4
f 7//5 15//5 14//5 6//5
f 5//6 13//6 12//6 4//6
f 3//7 11//7 9//7 2//7
f 8//8 16//8 15//8 7//8
f 6//9 14//9 13//9 5//9
f 4//10 12//10 11//10 3//10
