# Blender v2.79 (sub 0) OBJ File: 'Plane.blend'
# www.blender.org
mtllib Star.mtl
o Cube.002_Cube.003
v -1.700000 -1.000000 1.000000
v -1.000000 1.700000 1.000000
v 1.000000 -1.700000 1.000000
v 1.700000 1.000000 1.000000
v -1.000000 0.000000 1.000000
v 0.000000 1.000000 1.000000
v 0.000000 -1.000000 1.000000
v 1.000000 0.000000 1.000000
v 0.000000 0.000000 1.000000
v -1.000000 0.000000 1.000000
v -1.000000 1.700000 1.000000
v 0.000000 1.000000 1.000000
v 0.000000 -1.000000 1.000000
v 1.000000 -1.700000 1.000000
v 1.000000 0.000000 1.000000
v -1.700000 -1.000000 1.000000
v 1.700000 1.000000 1.000000
v 0.000000 0.000000 1.000000
vn 0.0000 0.0000 -1.0000
vn 0.0000 0.0000 1.0000
usemtl None
s off
f 9//1 5//1 2//1 6//1
f 7//1 1//1 5//1 9//1
f 3//1 7//1 9//1 8//1
f 8//1 9//1 6//1 4//1
f 18//2 12//2 11//2 10//2
f 13//2 18//2 10//2 16//2
f 14//2 15//2 18//2 13//2
f 15//2 17//2 12//2 18//2
f 2//2 5//2 10//2 11//2
f 8//2 4//2 17//2 15//2
f 4//2 6//2 12//2 17//2
f 3//2 8//2 15//2 14//2
f 6//2 2//2 11//2 12//2
f 1//2 7//2 13//2 16//2
f 5//2 1//2 16//2 10//2
f 7//2 3//2 14//2 13//2
